<svg xmlns="http://www.w3.org/2000/svg" width="202.805" height="46.5" viewBox="10.368 36.5 202.805 46.5"><g data-name="Nieuw symbool 4"><g data-name="Group 8"><g data-name="Group 7"><g data-name="Group 3"><g data-name="Group 2"><g data-name="Group 1"><path d="m69.182 63.658 7.691-7.705 7.64 7.643-1.179 1.182-6.46-6.456-6.515 6.514-1.177-1.178Z" fill-rule="evenodd" fill="url(&quot;#a&quot;)" transform="translate(-44.489 .298)" data-name="Path 1"/><path d="M67.707 75.941 89.728 53.92l22.021 22.021-22.02 22.021-22.022-22.02Zm2.35 0 19.671 19.66 19.66-19.66-19.66-19.67-19.67 19.67Z" fill-rule="evenodd" fill="url(&quot;#b&quot;)" transform="translate(-57.34 -17.42)" data-name="Path 2"/></g></g></g><g data-name="Group 6"><g data-name="Group 4"><path d="M63.959 71.12c1.185 0 2.069.398 2.826 1.088.059.058.068.146.01.204l-.185.204c-.068.068-.126.058-.194-.02-.67-.592-1.506-.951-2.457-.951-2.04 0-3.633 1.67-3.633 3.681 0 2.001 1.593 3.662 3.633 3.662 1 0 1.758-.398 2.457-.98.068-.06.136-.06.185-.02l.194.194c.058.048.058.136 0 .194a4.027 4.027 0 0 1-2.836 1.137c-2.332 0-4.216-1.846-4.216-4.187a4.204 4.204 0 0 1 4.216-4.206Z" fill="#f0f0f0" fill-rule="evenodd" data-name="Path 3"/><path d="M72.244 76.385c.535 0 1.05.165 1.176.214 0-1.03-.107-1.535-1.03-1.535-.767 0-1.292.272-1.399.31-.087.03-.145-.01-.175-.097l-.058-.135c-.029-.107.02-.156.078-.175.03-.02.622-.35 1.593-.35 1.418 0 1.477.845 1.477 2.04v2.584c0 .087-.069.155-.146.155h-.146c-.078 0-.116-.048-.136-.126l-.048-.428c-.302.282-.875.67-1.623.67-.864 0-1.525-.602-1.525-1.554 0-.893.738-1.573 1.962-1.573Zm-.378 2.671c.709 0 1.33-.437 1.554-.728v-1.283a3.113 3.113 0 0 0-1.176-.242c-.893 0-1.486.456-1.486 1.146 0 .67.466 1.107 1.108 1.107Z" fill="#f0f0f0" fill-rule="evenodd" data-name="Path 4"/><path d="M77.995 74.889c0-.087.068-.155.146-.155h.145c.068 0 .127.048.136.126l.049.476a1.81 1.81 0 0 1 1.457-.719c.37 0 .622.107.719.136.107.039.165.117.126.214l-.087.233c-.04.077-.107.087-.185.058-.058-.02-.291-.136-.612-.136-.903 0-1.35.729-1.38.797v3.322c0 .097-.048.155-.155.155h-.233c-.077 0-.126-.068-.126-.155v-4.352Z" fill="#f0f0f0" fill-rule="evenodd" data-name="Path 5"/><path d="M83.988 72.062c0-.214.175-.408.389-.408.223 0 .398.194.398.408a.392.392 0 0 1-.398.389.39.39 0 0 1-.389-.389Zm.136 2.827c0-.088.068-.156.156-.156h.204a.16.16 0 0 1 .155.156v4.352c0 .097-.048.155-.155.155h-.233c-.078 0-.127-.068-.127-.155v-4.352Z" fill="#f0f0f0" fill-rule="evenodd" data-name="Path 6"/><path d="M88.758 74.889c0-.087.068-.155.165-.155h.117a.13.13 0 0 1 .136.116l.048.495c.156-.155.797-.728 1.72-.728 1.31 0 1.884.826 1.884 2.127v2.497a.16.16 0 0 1-.155.155h-.214c-.078 0-.146-.068-.146-.155v-2.497c0-1.068-.505-1.622-1.389-1.622-.952 0-1.622.738-1.66.797v3.322c0 .097-.05.155-.156.155h-.224c-.078 0-.126-.068-.126-.155v-4.352Z" fill="#f0f0f0" fill-rule="evenodd" data-name="Path 7"/><path d="M97.18 77.755c-.127-.166-.36-.612-.36-1.166 0-1.127.777-1.972 2.04-1.972h1.904c.097 0 .156.068.156.155v.127c0 .058-.04.126-.107.136l-.836.058c.224.116.72.524.72 1.496 0 1.03-.74 1.933-1.934 1.933-.7 0-1.117-.262-1.272-.418-.088.03-.593.282-.593.836 0 .544.466.68.923.68h1.69c1 0 1.72.446 1.72 1.486 0 .99-.953 1.894-2.37 1.894-1.594 0-2.274-.933-2.274-1.72 0-.689.486-1.078.729-1.223-.233-.049-.904-.36-.904-1.06 0-.776.641-1.174.768-1.242Zm1.66 4.769c1.06 0 1.856-.612 1.856-1.408 0-.535-.33-1.03-1.185-1.03h-1.467c-.116.02-.942.34-.942 1.136 0 .641.612 1.302 1.739 1.302Zm1.37-5.945c0-.981-.66-1.496-1.437-1.496-.894 0-1.477.651-1.477 1.496 0 .806.505 1.486 1.477 1.486.874 0 1.437-.66 1.437-1.486Z" fill="#f0f0f0" fill-rule="evenodd" data-name="Path 8"/><path d="M109.38 72.062c0-.214.165-.408.389-.408.223 0 .398.194.398.408a.392.392 0 0 1-.398.389.384.384 0 0 1-.389-.389Zm.136 2.827c0-.088.068-.156.146-.156h.214a.16.16 0 0 1 .155.156v4.352c0 .097-.048.155-.155.155h-.233c-.078 0-.127-.068-.127-.155v-4.352Z" fill="#f0f0f0" fill-rule="evenodd" data-name="Path 9"/><path d="m113.887 78.823.117-.185c.03-.058.126-.087.204-.019.117.097.593.457 1.243.457.67 0 1.118-.37 1.118-.826 0-.534-.525-.758-1.302-1.05-.826-.29-1.428-.65-1.428-1.369 0-.515.447-1.214 1.525-1.214.612 0 1.078.223 1.311.37a.167.167 0 0 1 .049.222l-.068.127a.154.154 0 0 1-.223.058c-.107-.068-.574-.32-1.069-.32-.738 0-1 .427-1 .738 0 .476.417.69 1.107.932.864.33 1.641.622 1.641 1.477 0 .69-.728 1.292-1.66 1.292a2.42 2.42 0 0 1-1.526-.525c-.039-.039-.077-.107-.039-.165Z" fill="#f0f0f0" fill-rule="evenodd" data-name="Path 10"/><path d="M125.564 72.062c0-.214.174-.408.388-.408.223 0 .398.194.398.408a.392.392 0 0 1-.398.389.39.39 0 0 1-.388-.389Zm.136 2.827c0-.088.067-.156.155-.156h.204a.16.16 0 0 1 .155.156v4.352c0 .097-.048.155-.155.155h-.233c-.078 0-.126-.068-.126-.155v-4.352Z" fill="#f0f0f0" fill-rule="evenodd" data-name="Path 11"/><path d="M130.333 74.889c0-.087.068-.155.165-.155h.117a.13.13 0 0 1 .136.116l.048.495c.156-.155.797-.728 1.72-.728 1.31 0 1.884.826 1.884 2.127v2.497a.16.16 0 0 1-.155.155h-.214c-.078 0-.146-.068-.146-.155v-2.497c0-1.068-.505-1.622-1.389-1.622-.952 0-1.622.738-1.66.797v3.322c0 .097-.05.155-.156.155h-.224c-.078 0-.126-.068-.126-.155v-4.352Z" fill="#f0f0f0" fill-rule="evenodd" data-name="Path 12"/><path d="M145.331 74.617c1.311 0 2.35 1.107 2.35 2.428 0 1.37-1.039 2.468-2.35 2.468-1.311 0-2.331-1.098-2.331-2.468 0-1.32 1.02-2.428 2.331-2.428Zm0 4.41c1.03 0 1.836-.864 1.836-1.982 0-1.068-.806-1.942-1.836-1.942s-1.836.874-1.836 1.942c0 1.118.806 1.982 1.836 1.982Z" fill="#f0f0f0" fill-rule="evenodd" data-name="Path 13"/><path d="M151.392 74.889a.16.16 0 0 1 .156-.155h.214c.077 0 .145.068.145.155v2.496c0 1.088.505 1.632 1.39 1.632.961 0 1.505-.757 1.534-.816V74.89c0-.097.058-.155.156-.155h.204c.087 0 .155.068.155.155v4.352a.153.153 0 0 1-.155.155h-.137c-.087 0-.126-.068-.135-.146l-.049-.456c-.126.165-.69.719-1.613.719-1.301 0-1.865-.807-1.865-2.128V74.89Z" fill="#f0f0f0" fill-rule="evenodd" data-name="Path 14"/><path d="M159.484 74.889c0-.087.068-.155.146-.155h.145c.068 0 .127.048.136.126l.049.476a1.81 1.81 0 0 1 1.457-.719c.37 0 .622.107.719.136.107.039.165.117.126.214l-.087.233c-.04.077-.107.087-.194.058-.059-.02-.292-.136-.603-.136-.913 0-1.35.729-1.389.797v3.322c0 .097-.039.155-.146.155h-.233c-.077 0-.126-.068-.126-.155v-4.352Z" fill="#f0f0f0" fill-rule="evenodd" data-name="Path 15"/><path d="M170.49 74.889c0-.087.068-.155.165-.155h.117a.13.13 0 0 1 .136.116l.048.495c.155-.155.797-.728 1.73-.728 1.3 0 1.874.826 1.874 2.127v2.497a.153.153 0 0 1-.156.155h-.204a.153.153 0 0 1-.155-.155v-2.497c0-1.068-.505-1.622-1.389-1.622-.952 0-1.613.738-1.661.797v3.322c0 .097-.049.155-.156.155h-.223c-.078 0-.126-.068-.126-.155v-4.352Z" fill="#f0f0f0" fill-rule="evenodd" data-name="Path 16"/><path d="M180.213 76.385c.535 0 1.05.165 1.176.214 0-1.03-.107-1.535-1.03-1.535-.767 0-1.292.272-1.399.31-.087.03-.146-.01-.165-.097l-.058-.135c-.039-.107.01-.156.068-.175.029-.02.621-.35 1.593-.35 1.418 0 1.476.845 1.476 2.04v2.584c0 .087-.068.155-.145.155h-.146c-.078 0-.117-.048-.136-.126l-.049-.428c-.3.282-.874.67-1.622.67-.855 0-1.525-.602-1.525-1.554 0-.893.738-1.573 1.962-1.573Zm-.379 2.671c.71 0 1.331-.437 1.555-.728v-1.283a3.114 3.114 0 0 0-1.176-.242c-.893 0-1.476.456-1.476 1.146 0 .67.456 1.107 1.097 1.107Z" fill="#f0f0f0" fill-rule="evenodd" data-name="Path 17"/><path d="M186.158 75.19h-.544c-.116 0-.145-.058-.145-.155v-.185c0-.078.058-.116.145-.116h.544V73.46c0-.087.068-.146.156-.146l.194-.01c.087 0 .155.069.155.146v1.283h1.622c.088 0 .146.068.146.155v.146c0 .097-.058.155-.146.155h-1.622v2.973c0 .543.059.845.603.845.407 0 .913-.224 1.058-.311.107-.058.156-.02.185.039l.087.145c.049.078.03.146-.038.195-.175.145-.68.437-1.35.437-.962 0-1.05-.573-1.05-1.321V75.19Z" fill="#f0f0f0" fill-rule="evenodd" data-name="Path 18"/><path d="M192.084 74.889c0-.087.068-.155.155-.155h.204a.16.16 0 0 1 .155.155v2.496c0 1.088.496 1.632 1.38 1.632.971 0 1.505-.757 1.544-.816V74.89c0-.097.059-.155.146-.155h.214c.077 0 .145.068.145.155v4.352c0 .087-.068.155-.145.155h-.146c-.087 0-.126-.068-.136-.146l-.049-.456c-.126.165-.68.719-1.602.719-1.312 0-1.865-.807-1.865-2.128V74.89Z" fill="#f0f0f0" fill-rule="evenodd" data-name="Path 19"/><path d="M200.165 74.889c0-.087.068-.155.156-.155h.136c.068 0 .126.048.136.126l.048.476a1.81 1.81 0 0 1 1.458-.719c.369 0 .631.107.718.136.107.039.166.117.136.214l-.097.233c-.039.077-.107.087-.184.058-.059-.02-.292-.136-.612-.136-.904 0-1.35.729-1.38.797v3.322c0 .097-.048.155-.155.155h-.233c-.078 0-.127-.068-.127-.155v-4.352Z" fill="#f0f0f0" fill-rule="evenodd" data-name="Path 20"/><path d="M208.218 74.617c1.224 0 2.108.894 2.108 2.127 0 .185 0 .457-.165.457h-3.72c.048 1 .767 1.845 1.816 1.845.612 0 1.098-.252 1.37-.437.107-.068.155-.077.213 0l.117.165c.039.05.02.117-.049.185-.233.233-.961.554-1.69.554-1.418 0-2.292-1.098-2.292-2.468 0-1.32.874-2.428 2.292-2.428Zm1.603 2.166c0-.913-.554-1.7-1.603-1.7-1.02 0-1.71.748-1.768 1.7h3.37Z" fill="#f0f0f0" fill-rule="evenodd" data-name="Path 21"/></g><g data-name="Group 5"><path d="M70.467 67.565H68.34l-4.245-12.22.281-.398h3.614v-8.403h-5.207v21.02h-2.02V44.748h7.635c.476 0 .864.155 1.165.457.302.3.457.69.457 1.165v8.655c0 1.098-.738 1.652-2.215 1.652-.155 0-.369-.01-.65-.02-.282-.02-.486-.029-.613-.029 1.322 3.643 2.623 7.285 3.925 10.938Z" fill="#f0f0f0" fill-rule="evenodd" data-name="Path 22"/><path d="M81.2 65.913c0 1.098-.543 1.652-1.631 1.652h-4.673c-1.078 0-1.622-.554-1.622-1.652V55.024c0-1.097.544-1.641 1.622-1.641h4.673c1.088 0 1.632.544 1.632 1.641v5.11l-.66.68h-5.392v5.138h4.167V63.35h1.885v2.564Zm-1.884-6.644v-4.264H75.15v4.264h4.167Z" fill="#f0f0f0" fill-rule="evenodd" data-name="Path 23"/><path d="M92.42 67.565h-1.904v-.389c-.767.107-1.535.204-2.312.301-.942.117-1.71.175-2.283.175-1.058 0-1.593-.524-1.593-1.573V60.9c0-1.088.554-1.632 1.652-1.632h4.565v-4.264h-4.177v2.409h-1.874v-2.39c0-1.097.543-1.641 1.631-1.641h4.663c1.088 0 1.632.544 1.632 1.641v12.54Zm-1.875-1.768v-5.012h-4.332v5.109l4.332-.097Z" fill="#f0f0f0" fill-rule="evenodd" data-name="Path 24"/><path d="M97.627 67.565h-1.904V44.747h1.904v22.818Z" fill="#f0f0f0" fill-rule="evenodd" data-name="Path 25"/><path d="M114.5 67.565H107V44.747h7.402v1.797h-5.371v8.52h4.895v1.816h-4.895v8.897h5.468v1.788Z" fill="#f0f0f0" fill-rule="evenodd" data-name="Path 26"/><path d="M125.068 65.913c0 1.098-.554 1.652-1.651 1.652h-4.45c-1.097 0-1.64-.554-1.64-1.652v-3.215h1.903v3.196h3.925v-2.836l-5.071-4.148a1.85 1.85 0 0 1-.729-1.516v-2.37c0-1.097.544-1.641 1.642-1.641h4.39c1.098 0 1.652.544 1.652 1.641v2.837h-1.884v-2.798h-3.925v2.467l5.12 4.158c.475.379.718.894.718 1.544v2.681Z" fill="#f0f0f0" fill-rule="evenodd" data-name="Path 27"/><path d="M133.247 67.565h-2.759c-1.087 0-1.631-.554-1.631-1.652v-10.83h-1.71v-1.7h1.71v-4.42h1.903v4.42h2.487v1.7h-2.487v10.772h2.487v1.71Z" fill="#f0f0f0" fill-rule="evenodd" data-name="Path 28"/><path d="M143.738 67.565h-1.914v-.389c-.767.107-1.534.204-2.302.301-.952.117-1.71.175-2.282.175-1.069 0-1.594-.524-1.594-1.573V60.9c0-1.088.554-1.632 1.652-1.632h4.556v-4.264h-4.168v2.409h-1.884v-2.39c0-1.097.544-1.641 1.642-1.641h4.662c1.088 0 1.632.544 1.632 1.641v12.54Zm-1.884-1.768v-5.012h-4.323v5.109l4.323-.097Z" fill="#f0f0f0" fill-rule="evenodd" data-name="Path 29"/><path d="M152.024 67.565h-2.759c-1.088 0-1.632-.554-1.632-1.652v-10.83h-1.71v-1.7h1.71v-4.42h1.904v4.42h2.487v1.7h-2.487v10.772h2.487v1.71Z" fill="#f0f0f0" fill-rule="evenodd" data-name="Path 30"/><path d="M162.427 65.913c0 1.098-.544 1.652-1.632 1.652h-4.662c-1.088 0-1.632-.554-1.632-1.652V55.024c0-1.097.544-1.641 1.632-1.641h4.662c1.088 0 1.632.544 1.632 1.641v5.11l-.65.68h-5.401v5.138h4.177V63.35h1.874v2.564Zm-1.874-6.644v-4.264h-4.177v4.264h4.177Z" fill="#f0f0f0" fill-rule="evenodd" data-name="Path 31"/><path d="M180.855 65.952c0 .476-.156.865-.467 1.166-.31.301-.709.447-1.185.447h-5.867c-.476 0-.874-.146-1.166-.447-.3-.301-.456-.69-.456-1.166V46.37c0-.476.155-.864.456-1.165.292-.302.69-.457 1.166-.457h5.867c.476 0 .874.155 1.185.457.311.3.467.69.467 1.165v5.304h-2.04v-5.129h-5.08v19.233h5.08v-5.614h2.04v5.79Z" fill="#f0f0f0" fill-rule="evenodd" data-name="Path 32"/><path d="M192.18 67.565h-1.903v-.389c-.768.107-1.535.204-2.302.301-.952.117-1.72.175-2.293.175-1.059 0-1.593-.524-1.593-1.573V60.9c0-1.088.554-1.632 1.651-1.632h4.566v-4.264h-4.177v2.409h-1.875v-2.39c0-1.097.544-1.641 1.632-1.641h4.663c1.088 0 1.632.544 1.632 1.641v12.54Zm-1.874-1.768v-5.012h-4.332v5.109l4.332-.097Z" fill="#f0f0f0" fill-rule="evenodd" data-name="Path 33"/><path d="M202.778 58.045h-1.903v-2.924l-3.575.107v12.337h-1.943V53.383h1.943v.398c.641-.107 1.282-.204 1.933-.31.787-.118 1.428-.176 1.943-.176 1.068 0 1.602.525 1.602 1.593v3.157Z" fill="#f0f0f0" fill-rule="evenodd" data-name="Path 34"/><path d="M213.172 65.913c0 1.098-.544 1.652-1.632 1.652h-4.662c-1.088 0-1.632-.554-1.632-1.652V55.024c0-1.097.544-1.641 1.632-1.641h4.662c1.088 0 1.632.544 1.632 1.641v5.11l-.65.68h-5.392v5.138h4.167V63.35h1.875v2.564Zm-1.875-6.644v-4.264h-4.167v4.264h4.167Z" fill="#f0f0f0" fill-rule="evenodd" data-name="Path 35"/></g></g></g></g></g><defs><linearGradient x1=".359" y1="1.283" x2=".718" y2=".217" id="a"><stop stop-color="#fcfdfe" offset="0"/><stop stop-color="#eee" offset=".317"/><stop stop-color="#efefef" offset=".4"/><stop stop-color="#fbfbfb" offset="1"/></linearGradient><linearGradient x1=".283" y1=".874" x2=".717" y2=".126" id="b"><stop stop-color="#fcfdfe" offset="0"/><stop stop-color="#eee" offset=".317"/><stop stop-color="#efefef" offset=".4"/><stop stop-color="#fbfbfb" offset="1"/></linearGradient></defs></svg>